<?xml version="1.0" encoding="utf-8"?>
<!-- Generator: Adobe Illustrator 16.0.0, SVG Export Plug-In . SVG Version: 6.00 Build 0)  -->
<!DOCTYPE svg PUBLIC "-//W3C//DTD SVG 1.1//EN" "http://www.w3.org/Graphics/SVG/1.1/DTD/svg11.dtd">
<svg version="1.1" id="Layer_1" xmlns="http://www.w3.org/2000/svg" xmlns:xlink="http://www.w3.org/1999/xlink" x="0px" y="0px"
	 width="600px" height="600px" viewBox="259.855 -2.36 600 600" enable-background="new 259.855 -2.36 600 600"
	 xml:space="preserve">
<path fill="#00D1B2" d="M772.172,446.46H347.539c-19.595,0-35.717-15.627-35.717-34.973V183.792
	c0-19.347,16.122-34.973,35.717-34.973h424.633c19.595,0,35.717,15.626,35.717,34.973v227.695
	C807.888,430.833,791.766,446.46,772.172,446.46 M431.126,376.763v-90.781l47.622,58.289l47.623-58.289v90.781h47.87V218.517h-47.87
	l-47.623,58.288l-47.622-58.288h-47.622v158.246H431.126 M750.593,297.64H702.97v-79.123h-47.622v79.123h-47.871l71.682,81.355
	L750.593,297.64z"/>
</svg>
