<?xml version="1.0" standalone="no"?>
<!DOCTYPE svg PUBLIC "-//W3C//DTD SVG 20010904//EN"
 "http://www.w3.org/TR/2001/REC-SVG-20010904/DTD/svg10.dtd">
<svg version="1.0" xmlns="http://www.w3.org/2000/svg"
 width="700.000000pt" height="700.000000pt" viewBox="0 0 700.000000 700.000000"
 preserveAspectRatio="xMidYMid meet">
<metadata>
Created by potrace 1.14, written by Peter Selinger 2001-2017
</metadata>
<g transform="translate(0.000000,700.000000) scale(0.100000,-0.100000)"
fill="#000000" stroke="none">
<path d="M950 5229 c-124 -21 -246 -112 -302 -227 l-33 -67 0 -1435 0 -1435
33 -67 c58 -119 178 -206 312 -228 90 -14 4990 -14 5080 0 136 22 260 114 318
237 l27 58 0 1435 0 1435 -27 58 c-58 123 -182 215 -318 237 -83 13 -5010 12
-5090 -1z m1325 -1146 c148 -182 273 -332 277 -332 4 -1 130 150 280 334 l273
335 283 0 282 0 0 -920 0 -920 -280 0 -280 0 -2 525 -3 525 -274 -335 c-188
-229 -277 -332 -285 -326 -6 5 -130 156 -276 334 l-265 325 -3 -524 -2 -524
-280 0 -280 0 0 920 0 920 282 -2 282 -3 271 -332z m2895 -123 l0 -460 276 -2
275 -3 -197 -225 c-109 -124 -296 -336 -415 -472 l-218 -247 -415 472 -416
472 275 3 275 2 0 460 0 460 280 0 280 0 0 -460z"/>
</g>
</svg>
